# xmcd
# 
# Track frame offsets:
#     150
#     11944
#     24912
#     36811
#     49152
#     60845
#     72477
#     82296
#     97111
#     110070
#     124016
#     139302
#     151506
#     165984
#     178669
#     190022
#     204065
#     215174
#     228206
#     239242
#     251262
#     263354
#     273650
#     284881
#     296625
# 
# Disc length: 4085
# 
# Revision: 2
# Processed by: cddbd v1.5.2PL0 Copyright (c) Steve Scherf et al.
# Submitted via: fre:ac v1.0.31
# 
DISCID=710ff319
DTITLE=Country - The Greatest Country Hits of 1950 Disc 2
DYEAR=0
DGENRE=Country
TTITLE0=Tennessee Border No. 2
TTITLE1=Take Me In Your Arms And Hold Me
TTITLE2=Mama And Daddy Broke My Heart
TTITLE3=Sleepin At The Foot Of The Bed
TTITLE4=There's No Wings On My Angel
TTITLE5=Stampede
TTITLE6=Don't Be Ashamed Of Your Age
TTITLE7=Blues Stay Away From Me
TTITLE8=Rag Mop
TTITLE9=Letters Have No Arms
TTITLE10=Beyond The Sunset
TTITLE11=I'll Take A Back Seat For You
TTITLE12=The Cry Of The Wild Goose
TTITLE13=I Just Dont Like This Kind Of Livin
TTITLE14=Broken Down Merry Go Round
TTITLE15=Unfaithful One
TTITLE16=The Gods Were Angry With Me
TTITLE17=Quicksilver
TTITLE18=Peter Cottontail (Mervin Shiner)
TTITLE19=I Love You Because
TTITLE20=Peter Cottontail (Gene Autry)
TTITLE21=Peter Cottontail (Johnnie Lee Wills)
TTITLE22=My Son Calls Another Man Daddy
TTITLE23=Long Gone Lonesome Blues
TTITLE24=Peter Cottontail (Jimmie Wakely)
EXTD=
EXTT0=
EXTT1=
EXTT2=
EXTT3=
EXTT4=
EXTT5=
EXTT6=
EXTT7=
EXTT8=
EXTT9=
EXTT10=
EXTT11=
EXTT12=
EXTT13=
EXTT14=
EXTT15=
EXTT16=
EXTT17=
EXTT18=
EXTT19=
EXTT20=
EXTT21=
EXTT22=
EXTT23=
EXTT24=
PLAYORDER=
